#Comment line ignore any data following # character 
#Hierarchical Translation and Rotation (.htr) file 
[Header]	
#Header keywords are followed by a single value 
FileType HTR		#Single word string
DataType HTRS		#Translation followed by rotation and scale data
FileVersion 1		#integer
NumSegments 84		#integer
NumFrames 2		#integer
DataFrameRate 30		#integer, data frame rate in this file
EulerRotationOrder ZYX
CalibrationUnits mm
RotationUnits Degrees
GlobalAxisofGravity Y
BoneLengthAxis Y
ScaleFactor 1.00
[SegmentNames&Hierarchy]
#CHILD	PARENT
MASTER GLOBAL
root MASTER
chest root
L_mid_tent01 root
R_mid_tent01 root
spine01 root
Bip01_Neck chest
L_humerus chest
R_humerus chest
weapon_bone chest
Bip01_Head Bip01_Neck
eye_left_bone Bip01_Head
eye_right_bone Bip01_Head
L_forearm L_humerus
L_front_hand L_forearm
L_weapon_bone L_forearm
L_front_hand01_01 L_front_hand
L_front_hand02_01 L_front_hand
L_front_hand03_01 L_front_hand
L_front_hand01_02 L_front_hand01_01
L_front_hand02_02 L_front_hand02_01
L_front_hand03_02 L_front_hand03_01
R_forearm R_humerus
R_front_hand R_forearm
R_weapon_bone R_forearm
R_front_hand01_01 R_front_hand
R_front_hand02_01 R_front_hand
R_front_hand03_01 R_front_hand
R_front_hand01_02 R_front_hand01_01
R_front_hand02_02 R_front_hand02_01
R_front_hand03_02 R_front_hand03_01
null_rope01_connect L_mid_tent01
Rope1_Seg01 null_rope01_connect
Rope1_Seg02 Rope1_Seg01
Rope1_Seg03 Rope1_Seg02
Rope1_Seg04 Rope1_Seg03
Rope1_Seg05 Rope1_Seg04
Rope1_Seg06 Rope1_Seg05
Rope1_Seg07 Rope1_Seg06
Rope1_Seg09 Rope1_Seg07
L_mid_hand01 Rope1_Seg09
L_mid_hand02 Rope1_Seg09
L_mid_hand03 Rope1_Seg09
null_rope02_connect R_mid_tent01
Rope2_Seg01 null_rope02_connect
Rope2_Seg02 Rope2_Seg01
Rope2_Seg03 Rope2_Seg02
Rope2_Seg04 Rope2_Seg03
Rope2_Seg05 Rope2_Seg04
Rope2_Seg06 Rope2_Seg05
Rope2_Seg07 Rope2_Seg06
Rope2_Seg09 Rope2_Seg07
R_mid_hand01 Rope2_Seg09
R_mid_hand02 Rope2_Seg09
R_mid_hand03 Rope2_Seg09
spine02 spine01
spine03 spine02
pelvis spine03
null_rope03_connect pelvis
null_rope04_connect pelvis
Rope3_Seg01 null_rope03_connect
Rope3_Seg02 Rope3_Seg01
Rope3_Seg03 Rope3_Seg02
Rope3_Seg04 Rope3_Seg03
Rope3_Seg05 Rope3_Seg04
Rope3_Seg06 Rope3_Seg05
Rope3_Seg07 Rope3_Seg06
Rope3_Seg08 Rope3_Seg07
Rope3_Seg09 Rope3_Seg08
R_rear_hand01 Rope3_Seg09
R_rear_hand02 Rope3_Seg09
R_rear_hand03 Rope3_Seg09
Rope4_Seg01 null_rope04_connect
Rope4_Seg02 Rope4_Seg01
Rope4_Seg03 Rope4_Seg02
Rope4_Seg04 Rope4_Seg03
Rope4_Seg05 Rope4_Seg04
Rope4_Seg06 Rope4_Seg05
Rope4_Seg07 Rope4_Seg06
Rope4_Seg08 Rope4_Seg07
Rope4_Seg09 Rope4_Seg08
L_rear_hand01 Rope4_Seg09
L_rear_hand02 Rope4_Seg09
L_rear_hand03 Rope4_Seg09
[BasePosition]
#SegmentName Tx, Ty, Tz, Rx, Ry, Rz, BoneLength
MASTER 0.000000 0.000000 0.000000 -90.000000 0.000000 0.000000 10.000000 
root 0.000000 0.000000 0.000000 0.000000 0.000000 0.000000 10.000000 
chest 0.000000 0.000000 0.000000 0.000000 0.000000 0.000000 10.000000 
L_mid_tent01 0.000000 0.000000 0.000000 0.000000 0.000000 0.000000 10.000000 
R_mid_tent01 0.000000 0.000000 0.000000 0.000000 0.000000 0.000000 10.000000 
spine01 0.000000 0.000000 0.000000 0.000000 0.000000 0.000000 10.000000 
Bip01_Neck 0.000000 0.000000 0.000000 0.000000 0.000000 0.000000 10.000000 
L_humerus 0.000000 0.000000 0.000000 0.000000 0.000000 0.000000 10.000000 
R_humerus 0.000000 0.000000 0.000000 0.000000 0.000000 0.000000 10.000000 
weapon_bone 0.000000 0.000000 0.000000 0.000000 0.000000 0.000000 10.000000 
Bip01_Head 0.000000 0.000000 0.000000 0.000000 0.000000 0.000000 10.000000 
eye_left_bone 0.000000 0.000000 0.000000 0.000000 0.000000 0.000000 10.000000 
eye_right_bone 0.000000 0.000000 0.000000 0.000000 0.000000 0.000000 10.000000 
L_forearm 0.000000 0.000000 0.000000 0.000000 0.000000 0.000000 10.000000 
L_front_hand 0.000000 0.000000 0.000000 0.000000 0.000000 0.000000 10.000000 
L_weapon_bone 0.000000 0.000000 0.000000 0.000000 0.000000 0.000000 10.000000 
L_front_hand01_01 0.000000 0.000000 0.000000 0.000000 0.000000 0.000000 10.000000 
L_front_hand02_01 0.000000 0.000000 0.000000 0.000000 0.000000 0.000000 10.000000 
L_front_hand03_01 0.000000 0.000000 0.000000 0.000000 0.000000 0.000000 10.000000 
L_front_hand01_02 0.000000 0.000000 0.000000 0.000000 0.000000 0.000000 10.000000 
L_front_hand02_02 0.000000 0.000000 0.000000 0.000000 0.000000 0.000000 10.000000 
L_front_hand03_02 0.000000 0.000000 0.000000 0.000000 0.000000 0.000000 10.000000 
R_forearm 0.000000 0.000000 0.000000 0.000000 0.000000 0.000000 10.000000 
R_front_hand 0.000000 0.000000 0.000000 0.000000 0.000000 0.000000 10.000000 
R_weapon_bone 0.000000 0.000000 0.000000 0.000000 0.000000 0.000000 10.000000 
R_front_hand01_01 0.000000 0.000000 0.000000 0.000000 0.000000 0.000000 10.000000 
R_front_hand02_01 0.000000 0.000000 0.000000 0.000000 0.000000 0.000000 10.000000 
R_front_hand03_01 0.000000 0.000000 0.000000 0.000000 0.000000 0.000000 10.000000 
R_front_hand01_02 0.000000 0.000000 0.000000 0.000000 0.000000 0.000000 10.000000 
R_front_hand02_02 0.000000 0.000000 0.000000 0.000000 0.000000 0.000000 10.000000 
R_front_hand03_02 0.000000 0.000000 0.000000 0.000000 0.000000 0.000000 10.000000 
null_rope01_connect 0.000000 0.000000 0.000000 0.000000 0.000000 0.000000 10.000000 
Rope1_Seg01 0.000000 0.000000 0.000000 0.000000 0.000000 0.000000 10.000000 
Rope1_Seg02 0.000000 0.000000 0.000000 0.000000 0.000000 0.000000 10.000000 
Rope1_Seg03 0.000000 0.000000 0.000000 0.000000 0.000000 0.000000 10.000000 
Rope1_Seg04 0.000000 0.000000 0.000000 0.000000 0.000000 0.000000 10.000000 
Rope1_Seg05 0.000000 0.000000 0.000000 0.000000 0.000000 0.000000 10.000000 
Rope1_Seg06 0.000000 0.000000 0.000000 0.000000 0.000000 0.000000 10.000000 
Rope1_Seg07 0.000000 0.000000 0.000000 0.000000 0.000000 0.000000 10.000000 
Rope1_Seg09 0.000000 0.000000 0.000000 0.000000 0.000000 0.000000 10.000000 
L_mid_hand01 0.000000 0.000000 0.000000 0.000000 0.000000 0.000000 10.000000 
L_mid_hand02 0.000000 0.000000 0.000000 0.000000 0.000000 0.000000 10.000000 
L_mid_hand03 0.000000 0.000000 0.000000 0.000000 0.000000 0.000000 10.000000 
null_rope02_connect 0.000000 0.000000 0.000000 0.000000 0.000000 0.000000 10.000000 
Rope2_Seg01 0.000000 0.000000 0.000000 0.000000 0.000000 0.000000 10.000000 
Rope2_Seg02 0.000000 0.000000 0.000000 0.000000 0.000000 0.000000 10.000000 
Rope2_Seg03 0.000000 0.000000 0.000000 0.000000 0.000000 0.000000 10.000000 
Rope2_Seg04 0.000000 0.000000 0.000000 0.000000 0.000000 0.000000 10.000000 
Rope2_Seg05 0.000000 0.000000 0.000000 0.000000 0.000000 0.000000 10.000000 
Rope2_Seg06 0.000000 0.000000 0.000000 0.000000 0.000000 0.000000 10.000000 
Rope2_Seg07 0.000000 0.000000 0.000000 0.000000 0.000000 0.000000 10.000000 
Rope2_Seg09 0.000000 0.000000 0.000000 0.000000 0.000000 0.000000 10.000000 
R_mid_hand01 0.000000 0.000000 0.000000 0.000000 0.000000 0.000000 10.000000 
R_mid_hand02 0.000000 0.000000 0.000000 0.000000 0.000000 0.000000 10.000000 
R_mid_hand03 0.000000 0.000000 0.000000 0.000000 0.000000 0.000000 10.000000 
spine02 0.000000 0.000000 0.000000 0.000000 0.000000 0.000000 10.000000 
spine03 0.000000 0.000000 0.000000 0.000000 0.000000 0.000000 10.000000 
pelvis 0.000000 0.000000 0.000000 0.000000 0.000000 0.000000 10.000000 
null_rope03_connect 0.000000 0.000000 0.000000 0.000000 0.000000 0.000000 10.000000 
null_rope04_connect 0.000000 0.000000 0.000000 0.000000 0.000000 0.000000 10.000000 
Rope3_Seg01 0.000000 0.000000 0.000000 0.000000 0.000000 0.000000 10.000000 
Rope3_Seg02 0.000000 0.000000 0.000000 0.000000 0.000000 0.000000 10.000000 
Rope3_Seg03 0.000000 0.000000 0.000000 0.000000 0.000000 0.000000 10.000000 
Rope3_Seg04 0.000000 0.000000 0.000000 0.000000 0.000000 0.000000 10.000000 
Rope3_Seg05 0.000000 0.000000 0.000000 0.000000 0.000000 0.000000 10.000000 
Rope3_Seg06 0.000000 0.000000 0.000000 0.000000 0.000000 0.000000 10.000000 
Rope3_Seg07 0.000000 0.000000 0.000000 0.000000 0.000000 0.000000 10.000000 
Rope3_Seg08 0.000000 0.000000 0.000000 0.000000 0.000000 0.000000 10.000000 
Rope3_Seg09 0.000000 0.000000 0.000000 0.000000 0.000000 0.000000 10.000000 
R_rear_hand01 0.000000 0.000000 0.000000 0.000000 0.000000 0.000000 10.000000 
R_rear_hand02 0.000000 0.000000 0.000000 0.000000 0.000000 0.000000 10.000000 
R_rear_hand03 0.000000 0.000000 0.000000 0.000000 0.000000 0.000000 10.000000 
Rope4_Seg01 0.000000 0.000000 0.000000 0.000000 0.000000 0.000000 10.000000 
Rope4_Seg02 0.000000 0.000000 0.000000 0.000000 0.000000 0.000000 10.000000 
Rope4_Seg03 0.000000 0.000000 0.000000 0.000000 0.000000 0.000000 10.000000 
Rope4_Seg04 0.000000 0.000000 0.000000 0.000000 0.000000 0.000000 10.000000 
Rope4_Seg05 0.000000 0.000000 0.000000 0.000000 0.000000 0.000000 10.000000 
Rope4_Seg06 0.000000 0.000000 0.000000 0.000000 0.000000 0.000000 10.000000 
Rope4_Seg07 0.000000 0.000000 0.000000 0.000000 0.000000 0.000000 10.000000 
Rope4_Seg08 0.000000 0.000000 0.000000 0.000000 0.000000 0.000000 10.000000 
Rope4_Seg09 0.000000 0.000000 0.000000 0.000000 0.000000 0.000000 10.000000 
L_rear_hand01 0.000000 0.000000 0.000000 0.000000 0.000000 0.000000 10.000000 
L_rear_hand02 0.000000 0.000000 0.000000 0.000000 0.000000 0.000000 10.000000 
L_rear_hand03 0.000000 0.000000 0.000000 0.000000 0.000000 0.000000 10.000000 
#Beginning of Data. Separated by tabs
#Fr	Tx	Ty	Tz	Rx	Ry	Rz	SF
[MASTER]
7 0.000000 0.000000 0.000000 0.001660 0.001660 0.001660 0.000000
8 0.000000 0.000000 0.000000 0.001660 0.001660 0.001660 0.000000
[root]
7 -32.339386 -37.433712 1488.543335 -105.028305 -20.937115 -96.199203 1489.365112
8 -35.184200 -44.277134 1495.768677 -107.623596 -21.920980 -96.038406 1496.837524
[chest]
7 -84.512650 -34.090519 0.000000 -2.332559 3.786170 147.935120 91.129311
8 -84.512650 -34.090519 0.000000 -2.946977 4.552292 146.794708 91.129311
[L_mid_tent01]
7 27.299133 22.179106 -249.918732 2.840370 16.952499 80.395065 252.381714
8 27.299137 22.179106 -249.918716 1.792590 21.006762 79.241516 252.381699
[R_mid_tent01]
7 23.228794 24.509907 226.238495 162.030182 -29.020098 83.899460 228.744751
8 23.228794 24.509907 226.238495 164.520767 -15.661123 78.274391 228.744751
[spine01]
7 -0.361383 -0.195265 0.000000 0.002062 0.001122 32.879822 0.410763
8 -0.361383 -0.195265 0.000000 0.002062 0.001122 32.879829 0.410763
[Bip01_Neck]
7 165.484543 71.581718 0.000119 176.643677 -1.657967 43.431911 180.302734
8 165.484543 71.581718 0.000119 176.643677 -1.657967 43.431911 180.302734
[L_humerus]
7 -13.983130 -135.272980 -120.471481 177.698547 58.810211 -67.355644 181.680161
8 -13.983130 -135.272980 -120.471481 172.858276 48.450195 -67.556366 181.680161
[R_humerus]
7 -13.983309 -135.273102 125.287651 171.573868 -55.832363 -74.391983 184.909012
8 -13.983309 -135.273102 125.287651 175.836975 -45.230232 -78.467873 184.909012
[weapon_bone]
7 235.964890 -300.705902 0.000000 0.000000 -89.951546 -128.212341 382.234833
8 235.964890 -300.705902 0.000000 0.000000 -89.951546 -128.212341 382.234833
[Bip01_Head]
7 213.444183 185.715515 11.776936 10.213589 2.869843 -43.899784 283.173737
8 213.444183 185.715530 11.776937 11.632056 2.892752 -43.898949 283.173767
[eye_left_bone]
7 -24.626970 125.451866 -64.772606 0.000000 -90.000000 -99.840431 143.318359
8 -24.626970 125.451866 -64.772606 0.000000 -90.000000 -99.840431 143.318359
[eye_right_bone]
7 -24.626970 125.451866 64.327362 0.000000 -89.965736 80.156380 143.117676
8 -24.626970 125.451866 64.327362 0.000000 -89.965736 80.156380 143.117676
[L_forearm]
7 322.776093 0.000000 -0.000119 0.000396 -0.002314 -109.419975 322.776093
8 322.776093 0.000000 -0.000119 0.000396 -0.002314 -109.419975 322.776093
[L_front_hand]
7 241.149185 -0.042021 -3.300071 -178.667953 -1.835447 -27.422344 241.171753
8 241.149185 -0.042021 -3.300071 -178.667953 -1.835447 -27.422350 241.171753
[L_weapon_bone]
7 156.183838 0.000000 0.000000 0.000014 0.000007 0.000001 156.183838
8 156.183838 0.000000 0.000000 0.000014 0.000007 0.000001 156.183838
[L_front_hand01_01]
7 86.095154 20.947098 -0.655860 -0.328150 -0.505052 71.047821 88.609184
8 86.095154 20.947098 -0.655860 -0.313608 -0.508693 69.319023 88.609184
[L_front_hand02_01]
7 86.935165 -11.437475 24.513514 148.105911 -57.796455 -54.013393 91.046425
8 86.935165 -11.437475 24.513514 145.849396 -56.850945 -51.332970 91.046425
[L_front_hand03_01]
7 86.637497 -14.123976 -20.424902 -148.060394 56.013363 -55.730663 90.126129
8 86.637497 -14.123976 -20.424902 -145.946198 55.071426 -53.171322 90.126129
[L_front_hand01_02]
7 71.020905 -0.000179 0.000030 0.000317 -0.002326 -105.512405 71.020905
8 71.020905 -0.000179 0.000030 0.000316 -0.002326 -105.491295 71.020905
[L_front_hand02_02]
7 71.020927 -0.000119 0.000060 0.000317 -0.002326 -105.512405 71.020927
8 71.020927 -0.000119 0.000060 0.000316 -0.002326 -105.491295 71.020927
[L_front_hand03_02]
7 71.020905 -0.000060 0.000060 0.000317 -0.002326 -105.512405 71.020905
8 71.020905 -0.000060 0.000060 0.000316 -0.002326 -105.491295 71.020905
[R_forearm]
7 322.776428 -0.000060 0.000030 0.202103 0.065158 -108.062805 322.776428
8 322.776428 -0.000060 0.000030 0.202103 0.065158 -108.062805 322.776428
[R_front_hand]
7 238.847015 -0.006795 2.210259 -2.635298 -10.645461 -26.312506 238.857239
8 238.847015 -0.006795 2.210259 -2.635298 -10.645461 -26.312506 238.857239
[R_weapon_bone]
7 155.664093 0.002503 -0.000030 0.003487 0.001180 -90.988930 155.664078
8 155.664093 0.002503 -0.000030 0.003487 0.001180 -90.988930 155.664078
[R_front_hand01_01]
7 87.624611 14.231146 22.918642 -148.973022 -58.126904 55.145298 91.683487
8 87.624611 14.231146 22.918642 -146.722244 -57.229923 52.479805 91.683487
[R_front_hand02_01]
7 89.356956 14.367283 -19.491137 149.291214 56.493172 57.447308 92.579636
8 89.356956 14.367283 -19.491137 147.162369 55.605301 54.878815 92.579636
[R_front_hand03_01]
7 87.286232 -22.307278 -0.143439 0.132938 -0.433087 -71.919731 90.091743
8 87.286232 -22.307278 -0.143439 0.122539 -0.437831 -70.242157 90.091743
[R_front_hand01_02]
7 71.020905 0.000060 0.000119 0.002323 -0.000334 106.381721 71.020905
8 71.020905 0.000060 0.000119 0.002323 -0.000334 106.381714 71.020905
[R_front_hand02_02]
7 71.020844 -0.000030 -0.000119 0.002323 -0.000334 106.381721 71.020836
8 71.020844 -0.000030 -0.000119 0.002323 -0.000334 106.381714 71.020836
[R_front_hand03_02]
7 71.020905 0.000000 0.000030 0.002323 -0.000334 106.381721 71.020905
8 71.020905 0.000000 0.000030 0.002323 -0.000334 106.381714 71.020905
[null_rope01_connect]
7 328.732483 0.000000 -0.000238 -140.757996 -54.654263 170.977570 328.732483
8 328.732483 0.000000 -0.000238 -143.051254 -48.289188 175.164902 328.732483
[Rope1_Seg01]
7 -0.000034 0.000030 0.000119 111.528786 5.101231 -172.468582 0.000127
8 -0.000033 0.000028 0.000113 122.919922 19.311836 -161.620102 0.000121
[Rope1_Seg02]
7 139.999863 -0.000179 0.000000 6.589422 -5.481709 -6.491746 139.999863
8 139.999863 -0.000179 0.000000 24.217295 -0.836104 -18.747107 139.999863
[Rope1_Seg03]
7 139.999924 0.000060 -0.000060 2.858826 3.285215 -8.680113 139.999924
8 139.999924 0.000060 -0.000060 37.235130 -3.631613 -17.314096 139.999924
[Rope1_Seg04]
7 139.999924 -0.000060 -0.000119 5.308170 -39.347881 13.367458 139.999924
8 139.999924 -0.000060 -0.000119 -22.515829 -1.090549 34.495140 139.999924
[Rope1_Seg05]
7 139.999832 0.000119 -0.000060 -1.203504 -15.735599 8.668808 139.999832
8 139.999832 0.000119 -0.000060 -4.472092 -7.160738 18.604239 139.999832
[Rope1_Seg06]
7 139.999954 0.000119 -0.000060 -0.541959 -5.142899 2.511460 139.999954
8 139.999954 0.000119 -0.000060 -0.612806 -3.392571 6.351437 139.999954
[Rope1_Seg07]
7 139.999985 0.000060 0.000000 -0.369717 -2.897536 1.381447 139.999985
8 139.999985 0.000060 0.000000 -0.198509 -1.961560 3.596752 139.999985
[Rope1_Seg09]
7 121.602913 0.000119 -0.000089 -89.793175 -1.359789 0.847147 121.602913
8 121.602913 0.000119 -0.000089 -89.793175 -1.359789 0.847147 121.602913
[L_mid_hand01]
7 103.859421 1.038730 8.195221 109.550583 -42.192039 -13.947702 104.187431
8 103.859421 1.038730 8.195221 109.056190 -40.604702 -13.201404 104.187431
[L_mid_hand02]
7 105.572853 -4.139662 -10.864139 -147.594193 32.388809 -39.566727 106.211075
8 105.572853 -4.139662 -10.864139 -146.713593 31.476528 -37.902313 106.211075
[L_mid_hand03]
7 104.641464 17.579376 -3.913581 -13.906417 12.730958 45.572090 106.179977
8 104.641464 17.579376 -3.913581 -14.267232 12.322316 43.898403 106.179977
[null_rope02_connect]
7 328.732849 0.000179 -0.000119 -100.484093 72.157135 50.459953 328.732849
8 328.732849 0.000179 -0.000119 -38.055393 75.233086 109.622772 328.732849
[Rope2_Seg01]
7 0.000025 0.000109 0.000000 102.676132 33.391777 -123.938004 0.000112
8 0.000017 0.000108 0.000000 108.352135 40.602348 -118.417274 0.000109
[Rope2_Seg02]
7 139.999741 -0.000060 -0.000119 5.283308 -6.399344 -13.553162 139.999756
8 139.999741 -0.000060 -0.000119 1.623554 -8.781224 -1.095301 139.999756
[Rope2_Seg03]
7 140.000107 0.000030 0.000000 2.990042 -5.205228 -8.074498 140.000107
8 140.000107 0.000030 0.000000 1.019049 -7.514117 -1.453108 140.000107
[Rope2_Seg04]
7 139.999802 0.000000 -0.000060 1.400569 -3.179358 -4.199362 139.999802
8 139.999802 0.000000 -0.000060 0.424190 -5.204064 -1.126612 139.999802
[Rope2_Seg05]
7 139.999985 -0.000060 0.000119 0.346142 -0.225912 -1.621271 139.999985
8 139.999985 -0.000060 0.000119 -0.212717 2.037567 1.575854 139.999985
[Rope2_Seg06]
7 139.999893 -0.000030 -0.000119 -0.295988 4.184001 -1.102894 139.999893
8 139.999893 -0.000030 -0.000119 -1.447151 13.673435 7.180913 139.999893
[Rope2_Seg07]
7 139.999893 0.000060 -0.000060 -4.936302 33.772991 -18.328571 139.999893
8 139.999893 0.000060 -0.000060 -6.056979 21.001835 13.011572 139.999893
[Rope2_Seg09]
7 121.338966 0.000089 -0.000060 33.793236 -1.359788 -0.847141 121.338966
8 121.338966 0.000089 -0.000060 33.793236 -1.359788 -0.847141 121.338966
[R_mid_hand01]
7 104.680779 11.144459 -10.335981 -29.839331 38.782547 50.244728 105.778534
8 104.680779 11.144459 -10.335981 -32.351315 36.833469 46.151848 105.778534
[R_mid_hand02]
7 104.070427 2.443552 8.231699 65.096085 -53.911819 21.097559 104.424065
8 104.070427 2.443552 8.231699 67.067337 -50.463890 18.609592 104.424065
[R_mid_hand03]
7 106.028137 -11.221827 -5.996406 -172.771393 14.103964 -59.790871 106.788818
8 106.028137 -11.221827 -5.996406 -171.852554 13.596697 -55.941723 106.788818
[spine02]
7 129.756927 0.001550 0.000119 0.360061 -4.044797 -12.915058 129.756927
8 129.756927 0.001550 0.000119 0.360061 -4.044797 -12.915058 129.756927
[spine03]
7 78.614067 0.081635 -4.899008 1.896495 3.831288 16.473045 78.766602
8 78.614067 0.081635 -4.899008 1.896495 3.831288 16.473045 78.766602
[pelvis]
7 169.435242 0.051022 0.000000 -0.060465 -0.180225 14.087930 169.435257
8 169.435242 0.051022 0.000000 -0.060465 -0.180225 14.087930 169.435257
[null_rope03_connect]
7 -1.257226 -2.466202 137.391083 -138.627853 -72.710220 -161.605637 137.418976
8 -1.257226 -2.466202 137.391083 -140.949188 -70.284561 -158.399857 137.418976
[null_rope04_connect]
7 -1.259640 -2.480268 -137.844437 -138.627853 -72.710220 -161.605637 137.872513
8 -1.259640 -2.480268 -137.844437 -140.949188 -70.284561 -158.399857 137.872513
[Rope3_Seg01]
7 0.000010 0.000030 -0.000119 -130.586777 1.634695 -76.076759 0.000123
8 0.000010 0.000028 -0.000113 -137.057251 19.850004 -96.688187 0.000117
[Rope3_Seg02]
7 139.999924 -0.000119 0.000060 6.384065 -20.285933 -30.536352 139.999924
8 139.999924 -0.000119 0.000060 5.429991 -18.185877 -32.157238 139.999924
[Rope3_Seg03]
7 139.999924 -0.000119 0.000119 4.055393 -13.412418 -19.098343 139.999924
8 139.999924 -0.000119 0.000119 2.238616 -18.685371 -40.905670 139.999924
[Rope3_Seg04]
7 139.999924 0.000119 0.000000 4.645455 -8.000991 -10.005499 139.999924
8 139.999924 0.000119 0.000000 1.972406 -10.147559 -15.499134 139.999924
[Rope3_Seg05]
7 139.999924 -0.000238 0.000060 90.661102 -12.055964 -12.494938 139.999924
8 139.999924 -0.000238 0.000060 124.905434 -15.314439 -12.019734 139.999924
[Rope3_Seg06]
7 139.999893 -0.000119 -0.000060 67.817513 -12.415370 12.370898 139.999893
8 139.999893 -0.000119 -0.000060 25.657537 -1.428150 13.952374 139.999893
[Rope3_Seg07]
7 139.999771 0.000060 -0.000119 4.264810 3.632675 8.587103 139.999771
8 139.999771 0.000060 -0.000119 5.156968 2.417433 7.836254 139.999771
[Rope3_Seg08]
7 139.999985 -0.000060 0.000000 1.739405 2.458222 4.834406 139.999985
8 139.999985 -0.000060 0.000000 2.168728 1.785107 4.375157 139.999985
[Rope3_Seg09]
7 90.185997 -0.000179 -0.000060 89.793228 -1.359877 -0.847183 90.185997
8 90.185997 -0.000179 -0.000060 89.793228 -1.359877 -0.847183 90.185997
[R_rear_hand01]
7 103.366196 -6.073594 -10.757982 -168.879318 22.159389 -51.875217 104.101845
8 103.366196 -6.073594 -10.757982 -167.214478 21.275589 -47.380089 104.101845
[R_rear_hand02]
7 100.509819 12.039542 -7.992327 -25.725418 30.035101 49.111378 101.543350
8 100.509819 12.039542 -7.992327 -27.849987 28.109207 44.747765 101.543350
[R_rear_hand03]
7 101.539970 5.215704 5.435467 80.741722 -51.988728 11.182405 101.819031
8 101.539970 5.215704 5.435467 81.522346 -47.764675 10.158545 101.819031
[Rope4_Seg01]
7 0.000010 0.000038 -0.000114 52.320282 -40.526127 -101.637108 0.000121
8 0.000010 0.000038 -0.000114 52.525097 -17.616335 -112.989624 0.000121
[Rope4_Seg02]
7 139.999985 0.000060 0.000119 6.990179 -37.348026 -21.152006 139.999985
8 139.999985 0.000060 0.000119 9.766642 -37.206112 -12.532334 139.999985
[Rope4_Seg03]
7 139.999924 0.000000 -0.000238 -9.603846 -14.235714 -11.762486 139.999924
8 139.999924 0.000000 -0.000238 1.223095 -10.760927 -4.625486 139.999924
[Rope4_Seg04]
7 139.999985 0.000000 0.000119 -2.051201 -4.561858 -2.783206 139.999985
8 139.999985 0.000000 0.000119 10.381162 -5.657586 1.913862 139.999985
[Rope4_Seg05]
7 139.999802 -0.000060 -0.000119 19.238829 -4.043438 3.196725 139.999802
8 139.999802 -0.000060 -0.000119 24.743540 -5.532346 8.114203 139.999802
[Rope4_Seg06]
7 139.999924 0.000000 0.000060 33.568844 -2.403611 10.885625 139.999924
8 139.999924 0.000000 0.000060 21.784822 -1.760803 10.705901 139.999924
[Rope4_Seg07]
7 139.999802 0.000000 0.000000 16.234726 3.042554 9.951853 139.999802
8 139.999802 0.000000 0.000000 11.679028 1.019486 7.967360 139.999802
[Rope4_Seg08]
7 139.999924 0.000000 0.000119 5.183697 3.089283 5.824442 139.999924
8 139.999924 0.000000 0.000119 4.596930 1.855169 5.424414 139.999924
[Rope4_Seg09]
7 90.185791 0.000060 0.000060 -135.617828 2.228885 0.850567 90.185791
8 90.185791 0.000060 0.000060 -135.617828 2.228885 0.850567 90.185791
[L_rear_hand01]
7 101.696655 -8.392275 -7.654577 -31.388371 -23.993202 143.295715 102.329041
8 101.696655 -8.392275 -7.654577 -30.542530 -25.103897 141.266037 102.329041
[L_rear_hand02]
7 102.726799 -1.568258 5.773216 82.614510 39.532619 171.418350 102.900848
8 102.726799 -1.568258 5.773216 82.378868 41.665546 171.051651 102.900848
[L_rear_hand03]
7 104.552910 9.721220 -10.420293 -164.240021 -19.219107 -141.205597 105.519653
8 104.552910 9.721220 -10.420293 -164.974716 -19.790842 -139.005096 105.519653
